<svg width="58" height="28" viewBox="0 0 58 28" fill="none" xmlns="http://www.w3.org/2000/svg">
<rect width="58" height="28" rx="4" fill="#C46A2B"/>
<path d="M17.4148 18H16.3068L19.5114 9.27273H20.6023L23.8068 18H22.6989L20.0909 10.6534H20.0227L17.4148 18ZM17.8239 14.5909H22.2898V15.5284H17.8239V14.5909ZM27.8594 18H25.1662V9.27273H27.9787C28.8253 9.27273 29.5497 9.44744 30.152 9.79688C30.7543 10.1435 31.2159 10.642 31.5369 11.2926C31.858 11.9403 32.0185 12.7159 32.0185 13.6193C32.0185 14.5284 31.8565 15.3111 31.5327 15.9673C31.2088 16.6207 30.7372 17.1236 30.1179 17.4759C29.4986 17.8253 28.7457 18 27.8594 18ZM26.223 17.0625H27.7912C28.5128 17.0625 29.1108 16.9233 29.5852 16.6449C30.0597 16.3665 30.4134 15.9702 30.6463 15.456C30.8793 14.9418 30.9957 14.3295 30.9957 13.6193C30.9957 12.9148 30.8807 12.3082 30.6506 11.7997C30.4205 11.2884 30.0767 10.8963 29.6193 10.6236C29.1619 10.348 28.5923 10.2102 27.9105 10.2102H26.223V17.0625ZM36.4844 18H33.7912V9.27273H36.6037C37.4503 9.27273 38.1747 9.44744 38.777 9.79688C39.3793 10.1435 39.8409 10.642 40.1619 11.2926C40.483 11.9403 40.6435 12.7159 40.6435 13.6193C40.6435 14.5284 40.4815 15.3111 40.1577 15.9673C39.8338 16.6207 39.3622 17.1236 38.7429 17.4759C38.1236 17.8253 37.3707 18 36.4844 18ZM34.848 17.0625H36.4162C37.1378 17.0625 37.7358 16.9233 38.2102 16.6449C38.6847 16.3665 39.0384 15.9702 39.2713 15.456C39.5043 14.9418 39.6207 14.3295 39.6207 13.6193C39.6207 12.9148 39.5057 12.3082 39.2756 11.7997C39.0455 11.2884 38.7017 10.8963 38.2443 10.6236C37.7869 10.348 37.2173 10.2102 36.5355 10.2102H34.848V17.0625Z" fill="white"/>
</svg>
