<svg width="16" height="8" viewBox="0 0 16 8" fill="none" xmlns="http://www.w3.org/2000/svg">
<path fill-rule="evenodd" clip-rule="evenodd" d="M0.179442 0.261935C0.24357 0.187112 0.321814 0.12566 0.409703 0.0810916C0.497591 0.0365229 0.593401 0.00971081 0.691657 0.0021884C0.789913 -0.00533402 0.888688 0.00658089 0.982337 0.0372512C1.07599 0.0679215 1.16267 0.116746 1.23744 0.180935L7.74944 5.76193L14.2614 0.180935C14.4133 0.0590635 14.6065 0.00100697 14.8004 0.0190379C14.9942 0.0370689 15.1735 0.129774 15.3002 0.277556C15.427 0.425338 15.4913 0.616615 15.4796 0.810951C15.4679 1.00529 15.381 1.18745 15.2374 1.31894L8.23744 7.31893C8.10152 7.4354 7.92843 7.49941 7.74944 7.49941C7.57045 7.49941 7.39736 7.4354 7.26144 7.31893L0.261442 1.31894C0.110627 1.18945 0.0173822 1.00539 0.00219421 0.807198C-0.0129938 0.609004 0.0511178 0.412887 0.180443 0.261935H0.179442Z" fill="#2C4246"/>
</svg>
