<svg width="20" height="14" viewBox="0 0 20 14" fill="none" xmlns="http://www.w3.org/2000/svg">
<path d="M19.0828 2.55066C18.9818 2.42715 18.8546 2.32767 18.7104 2.25945C18.5662 2.19123 18.4086 2.15598 18.2491 2.15625H4.57709L4.30172 0.593867C4.27236 0.427444 4.18529 0.27669 4.05582 0.168083C3.92635 0.0594767 3.76274 -3.55069e-05 3.59375 1.58935e-08H0.71875C0.528126 1.58935e-08 0.345309 0.0757254 0.210517 0.210517C0.0757252 0.345309 0 0.528126 0 0.71875C0 0.909374 0.0757252 1.09219 0.210517 1.22698C0.345309 1.36177 0.528126 1.4375 0.71875 1.4375H2.9909L5.04203 13.0624C5.07139 13.2288 5.15846 13.3796 5.28793 13.4882C5.41741 13.5968 5.58101 13.6563 5.75 13.6562H17.25C17.4406 13.6562 17.6234 13.5805 17.7582 13.4457C17.893 13.3109 17.9688 13.1281 17.9688 12.9375C17.9688 12.7469 17.893 12.5641 17.7582 12.4293C17.6234 12.2945 17.4406 12.2188 17.25 12.2188H6.35285L6.09949 10.7812H16.9553C17.2046 10.7809 17.4461 10.6945 17.6389 10.5366C17.8318 10.3787 17.9642 10.159 18.0137 9.91471L19.3074 3.44596C19.3386 3.28941 19.3346 3.12788 19.2958 2.97306C19.2569 2.81823 19.1842 2.67396 19.0828 2.55066Z" fill="white"/>
</svg>
